<svg xmlns="http://www.w3.org/2000/svg" viewBox="0 0 512 512" width="512" height="512">
  <defs>
    <linearGradient id="obsidianGradient" x1="0%" y1="0%" x2="100%" y2="100%">
      <stop offset="0%" style="stop-color:#f43f5e;stop-opacity:1" />
      <stop offset="100%" style="stop-color:#b91c1c;stop-opacity:1" />
    </linearGradient>
    <filter id="glow">
      <feGaussianBlur stdDeviation="2.5" result="coloredBlur"/>
      <feMerge>
        <feMergeNode in="coloredBlur"/>
        <feMergeNode in="SourceGraphic"/>
      </feMerge>
    </filter>
  </defs>
  <path d="M256 32 C 150 32, 64 64, 64 64 L 64 224 C 64 360, 256 480, 256 480 C 256 480, 448 360, 448 224 L 448 64 C 448 64, 362 32, 256 32 Z" 
        fill="#1a1d21" stroke="url(#obsidianGradient)" stroke-width="12" filter="url(#glow)"/>
  <path d="M256 100 L 320 200 L 256 380 L 192 200 Z" fill="url(#obsidianGradient)" opacity="0.9"/>
  <path d="M256 100 L 340 220 L 256 350" fill="none" stroke="#3d424a" stroke-width="2"/>
  <path d="M256 100 L 172 220 L 256 350" fill="none" stroke="#3d424a" stroke-width="2"/>
  <circle cx="256" cy="220" r="4" fill="#e0e6ed" />
  <circle cx="256" cy="180" r="2" fill="#e0e6ed" />
  <circle cx="256" cy="260" r="2" fill="#e0e6ed" />
</svg>